<?xml version="1.0" encoding="UTF-8"?>
<svg width="30px" height="30px" viewBox="0 0 30 30" version="1.1" xmlns="http://www.w3.org/2000/svg" xmlns:xlink="http://www.w3.org/1999/xlink">
    <!-- Generator: Sketch 58 (84663) - https://sketch.com -->
    <title>关闭摄像头</title>
    <desc>Created with Sketch.</desc>
    <g id="---第三版" stroke="none" stroke-width="1" fill="none" fill-rule="evenodd">
        <g id="桌面-优化提醒备份-7" transform="translate(-998.000000, -837.000000)">
            <g id="编组-25" transform="translate(-2.000000, -2.000000)">
                <g id="关闭摄像头" transform="translate(1000.000000, 839.000000)">
                    <path d="M14.961039,-8.8817842e-14 C6.68181818,-8.8817842e-14 -8.8817842e-14,6.7012987 -8.8817842e-14,14.961039 C-8.8817842e-14,23.2207792 6.7012987,29.9220779 14.961039,29.9220779 C23.2207792,29.9220779 29.9220779,23.2207792 29.9220779,14.961039 C29.9220779,6.7012987 23.2402597,-8.8817842e-14 14.961039,-8.8817842e-14 Z" id="路径" fill-opacity="0.3" fill="#333333" fill-rule="nonzero"></path>
                    <path d="M18.408911,11.4306629 L18.408911,18.3458144 C18.408911,19.6969697 16.9777178,19.6969697 16.9627462,19.6969697 L8.511,19.6969517 L17.9007116,10.3064849 C18.1780011,10.5122145 18.408911,10.856041 18.408911,11.4306629 Z M22.7381439,10.8556155 C22.8889489,10.9254924 22.9714773,11.0516951 22.9714773,11.1784375 L22.9714773,19.0889489 C22.9714773,19.2007102 22.9301231,19.3274527 22.8158617,19.3310133 C22.7240625,19.4117614 22.6827178,19.4117614 22.6602462,19.4117614 C22.5757425,19.4110189 22.4938,19.3826616 22.4269129,19.3310133 L19.7046402,17.1517045 C19.5903883,17.0898485 19.5490246,16.9631155 19.5490246,16.9096307 L19.5490246,13.3579356 C19.5490246,13.2900189 19.5903883,13.2055303 19.7046402,13.1158617 L22.4269129,10.9363636 C22.517822,10.8411742 22.641714,10.8411742 22.7381439,10.8556155 Z M16.793,9.99995167 L7.43922569,19.3555917 C7.19364729,19.1569717 7,18.8427911 7,18.3458144 L7,11.3511553 C7,10.1174918 8.1931119,10.0102167 8.41200535,10.0008884 L16.793,9.99995167 Z" id="形状结合" fill="#FFFFFF" fill-rule="nonzero"></path>
                    <path d="M7.5,21.5 L19.7279221,9" id="直线-10" stroke="#DA361F" stroke-width="1.3" stroke-linecap="round"></path>
                </g>
            </g>
        </g>
    </g>
</svg>