<?xml version="1.0" encoding="UTF-8"?>
<svg width="30px" height="30px" viewBox="0 0 30 30" version="1.1" xmlns="http://www.w3.org/2000/svg" xmlns:xlink="http://www.w3.org/1999/xlink">
    <!-- Generator: Sketch 58 (84663) - https://sketch.com -->
    <title>打开摄像头</title>
    <desc>Created with Sketch.</desc>
    <g id="---第三版" stroke="none" stroke-width="1" fill="none" fill-rule="evenodd">
        <g id="桌面-优化提醒备份-6" transform="translate(-1030.000000, -837.000000)" fill-rule="nonzero">
            <g id="编组-21" transform="translate(-36.000000, -2.000000)">
                <g id="打开摄像头" transform="translate(1066.000000, 839.000000)">
                    <path d="M14.961039,-8.8817842e-14 C6.68181818,-8.8817842e-14 -8.8817842e-14,6.7012987 -8.8817842e-14,14.961039 C-8.8817842e-14,23.2207792 6.7012987,29.9220779 14.961039,29.9220779 C23.2207792,29.9220779 29.9220779,23.2207792 29.9220779,14.961039 C29.9220779,6.7012987 23.2402597,-8.8817842e-14 14.961039,-8.8817842e-14 Z" id="路径" fill-opacity="0.3" fill="#333333"></path>
                    <g id="视频-(1)" transform="translate(7.000000, 10.000000)" fill="#FFFFFF">
                        <path d="M15.7381439,0.85561553 C15.8889489,0.925492424 15.9714773,1.05169508 15.9714773,1.1784375 L15.9714773,9.08894886 C15.9714773,9.20071023 15.9301231,9.32745265 15.8158617,9.33101326 C15.7240625,9.41176136 15.6827178,9.41176136 15.6602462,9.41176136 C15.5757425,9.41101888 15.4938,9.38266157 15.4269129,9.33101326 L12.7046402,7.15170455 C12.5903883,7.08984848 12.5490246,6.96311553 12.5490246,6.90963068 L12.5490246,3.35793561 C12.5490246,3.29001894 12.5903883,3.2055303 12.7046402,3.11586174 L15.4269129,0.936363636 C15.517822,0.841174242 15.641714,0.841174242 15.7381439,0.85561553 L15.7381439,0.85561553 Z M9.96274621,0 C9.97753788,0 11.408911,0 11.408911,1.43066288 L11.408911,8.34581439 C11.408911,9.6969697 9.9777178,9.6969697 9.96274621,9.6969697 L1.44617424,9.6969697 C1.43136364,9.6969697 0,9.6969697 0,8.34581439 L0,1.3511553 C0,0 1.43119318,0 1.44616477,0 L9.96274621,0 Z" id="形状"></path>
                    </g>
                </g>
            </g>
        </g>
    </g>
</svg>