<?xml version="1.0" encoding="UTF-8"?>
<svg width="30px" height="30px" viewBox="0 0 30 30" version="1.1" xmlns="http://www.w3.org/2000/svg" xmlns:xlink="http://www.w3.org/1999/xlink">
    <!-- Generator: Sketch 58 (84663) - https://sketch.com -->
    <title>挂断 (5)</title>
    <desc>Created with Sketch.</desc>
    <g id="---第三版" stroke="none" stroke-width="1" fill="none" fill-rule="evenodd">
        <g id="桌面-优化提醒备份-6" transform="translate(-960.000000, -837.000000)" fill-rule="nonzero">
            <g id="编组-21" transform="translate(-36.000000, -2.000000)">
                <g id="挂断-(5)" transform="translate(996.000000, 839.000000)">
                    <path d="M14.971388,0.0112621753 C6.69216721,0.0112621753 0.010349026,6.71256088 0.010349026,14.9723011 C0.010349026,23.2320414 6.71164773,29.9333401 14.971388,29.9333401 C23.2311282,29.9333401 29.9324269,23.2320414 29.9324269,14.9723011 C29.9324269,6.71256088 23.2506088,0.0112621753 14.971388,0.0112621753 Z" id="路径" fill="#DA361F"></path>
                    <path d="M22.1986607,18.4008726 C19.3155438,18.0891843 19.510349,17.0177557 19.510349,15.5761972 C19.510349,14.5632102 17.1726867,14.3489245 14.971388,14.3489245 C12.7700893,14.3489245 10.4324269,14.5826907 10.4324269,15.5956778 C10.4324269,17.0372362 10.6077516,18.1086648 7.76359578,18.4203531 C4.8804789,18.7515219 5.27008929,16.6671063 5.27008929,15.2645089 C5.27008929,13.6671063 9.02982955,11.3878856 14.971388,11.3878856 C20.9324269,11.368405 24.6921672,13.6086648 24.6921672,15.2060674 C24.6921672,16.6476258 25.0622971,18.7125609 22.1986607,18.4008726 Z" id="路径" fill="#FFFFFF"></path>
                </g>
            </g>
        </g>
    </g>
</svg>