<?xml version="1.0" encoding="UTF-8"?>
<svg width="24px" height="16px" viewBox="0 0 24 16" version="1.1" xmlns="http://www.w3.org/2000/svg" xmlns:xlink="http://www.w3.org/1999/xlink">
    <!-- Generator: Sketch 58 (84663) - https://sketch.com -->
    <title>邀请加入</title>
    <desc>Created with Sketch.</desc>
    <g id="---第三版" stroke="none" stroke-width="1" fill="none" fill-rule="evenodd">
        <g id="桌面-优化提醒备份-6" transform="translate(-603.000000, -844.000000)" fill="#FFFFFF" fill-rule="nonzero">
            <g id="编组-21" transform="translate(-36.000000, -2.000000)">
                <path d="M653.432,855.253731 C653.373333,855.253731 652.786667,854.895522 653.197333,854 L653.314667,853.880597 C654.018667,853.283582 654.605333,851.970149 654.605333,850.179104 C654.605333,848.268657 653.373333,846.955224 651.672,846.955224 C651.378667,846.955224 651.144,846.955224 650.909333,847.014925 C651.496,847.731343 651.672,849.044776 651.672,850.238806 C651.672,852.507463 651.085333,854.358209 650.205333,855.253731 C650.205333,855.253731 649.677333,855.731343 650.264,856.029851 L651.026667,856.38806 C652.434667,857.104478 654.077333,858.119403 655.250667,859.134328 L657.48,859.134328 C657.656,859.134328 657.832,858.955224 657.832,858.776119 L657.832,858.179104 C657.773333,857.343284 655.133333,855.850746 653.432,855.253731 L653.432,855.253731 Z M649.090667,856.865672 C648.973333,856.80597 648.328,856.38806 648.738667,855.19403 C649.736,854.477612 650.557333,852.626866 650.557333,850.238806 C650.557333,847.671642 649.090667,846 646.802667,846 C644.456,846 643.048,847.731343 643.048,850.238806 C643.048,852.507463 643.810667,854.477612 644.866667,855.19403 C645.16,856.38806 644.632,856.746269 644.456,856.80597 C642.344,857.641791 639,859.61194 639,860.746269 L639,861.462687 C639,861.701493 639.234667,862 639.469333,862 L654.136,862 C654.370667,862 654.605333,861.820896 654.605333,861.522388 L654.605333,860.80597 C654.605333,859.61194 651.378667,857.641791 649.090667,856.865672 Z M661.938667,852.38806 L659.357333,852.38806 L659.357333,849.761194 C659.357333,849.462687 659.122667,849.223881 658.829333,849.223881 C658.536,849.223881 658.301333,849.462687 658.301333,849.761194 L658.301333,852.38806 L655.72,852.38806 C655.426667,852.38806 655.192,852.626866 655.192,852.925373 C655.192,853.223881 655.426667,853.462687 655.72,853.462687 L658.301333,853.462687 L658.301333,856.089552 C658.301333,856.38806 658.536,856.626866 658.829333,856.626866 C659.122667,856.626866 659.357333,856.38806 659.357333,856.089552 L659.357333,853.462687 L661.938667,853.462687 C662.232,853.462687 662.466667,853.223881 662.466667,852.925373 C662.466667,852.626866 662.232,852.38806 661.938667,852.38806 Z" id="邀请加入"></path>
            </g>
        </g>
    </g>
</svg>