<?xml version="1.0" encoding="UTF-8"?>
<svg width="75px" height="31px" viewBox="0 0 75 31" version="1.1" xmlns="http://www.w3.org/2000/svg" xmlns:xlink="http://www.w3.org/1999/xlink">
    <!-- Generator: Sketch 58 (84663) - https://sketch.com -->
    <title>列表模式</title>
    <desc>Created with Sketch.</desc>
    <g id="组件" stroke="none" stroke-width="1" fill="none" fill-rule="evenodd">
        <g id="编辑删除图标" transform="translate(-901.000000, -80.000000)">
            <g id="列表模式" transform="translate(900.978087, 80.975353)">
                <rect id="矩形" fill-opacity="0.3" fill="#333333" x="0" y="0" width="75" height="30" rx="15"></rect>
                <path d="M15.7711413,8.00679348 L20.3285326,8.00679348 C20.7511413,8.00679348 21.0928809,8.34853261 21.0928809,8.7711413 L21.0928809,13.3285326 C21.0931112,13.5312503 21.0128031,13.7257568 20.8696232,13.869263 C20.7264432,14.0127691 20.5321199,14.0935195 20.3294022,14.0937505 L15.7720109,14.0937505 C15.5691426,14.0939808 15.3745043,14.0135534 15.2309731,13.8701854 C15.087442,13.7268173 15.0067935,13.5322706 15.0067935,13.3294022 L15.0067935,8.77201087 C15.0067935,8.34853261 15.3485326,8.00679348 15.7711413,8.00679348 Z M15.7711413,15.8328804 L20.3285326,15.8328804 C20.7511413,15.8328804 21.0928804,16.1746196 21.0928804,16.5972283 L21.0928804,21.1554891 C21.0928804,21.3582068 21.0123512,21.5526216 20.8690081,21.6959647 C20.7256651,21.8393077 20.5312503,21.9198375 20.3285326,21.9198375 L15.7720109,21.9198375 C15.5691426,21.9200678 15.3745043,21.8396404 15.2309731,21.6962723 C15.087442,21.5529043 15.0067935,21.3583575 15.0067935,21.1554891 L15.0067935,16.5980978 C15.0067935,16.1754891 15.3485326,15.83375 15.7711413,15.83375 L15.7711413,15.8328804 Z M23.5972283,8.00679348 L28.1554891,8.00679348 C28.5780978,8.00679348 28.919837,8.34853261 28.919837,8.7711413 L28.919837,13.3285326 C28.919837,13.7506703 28.5776268,14.0928809 28.1554891,14.0928809 L23.5980978,14.0928809 C23.3953801,14.0931112 23.2008736,14.0128031 23.0573675,13.8696232 C22.9138613,13.7264432 22.8331109,13.5321199 22.8328804,13.3294022 L22.8328804,8.77201087 C22.8328804,8.34940217 23.1746196,8.00766304 23.5972283,8.00766304 L23.5972283,8.00679348 Z M23.5972283,15.8328804 L28.1554891,15.8328804 C28.5780978,15.8328804 28.919837,16.1746196 28.919837,16.5972283 L28.919837,21.1554891 C28.919837,21.3582068 28.8393077,21.5526216 28.6959647,21.6959647 C28.5526216,21.8393077 28.3582068,21.919837 28.1554891,21.919837 L23.5980978,21.919837 C23.3953802,21.919837 23.2009653,21.8393077 23.0576223,21.6959647 C22.9142793,21.5526216 22.83375,21.3582068 22.83375,21.1554891 L22.83375,16.5980978 C22.83375,16.1754891 23.1754891,15.83375 23.5980978,15.83375 L23.5972283,15.8328804 Z" id="形状" fill="#FFFFFF" fill-rule="nonzero"></path>
                <path d="M59.881296,8.01785386 C60.2004136,8.01785386 60.4680607,8.13108915 60.6945313,8.34726562 C60.9210018,8.57373621 61.0342371,8.84138327 61.0342371,9.16050092 L61.0342371,10.0355009 C61.0342371,10.3546186 60.9210018,10.6325597 60.6945313,10.8487362 C60.4680607,11.0752068 60.2004136,11.178148 59.881296,11.178148 L47.1577665,11.178148 C46.8386489,11.178148 46.5710018,11.0649127 46.3445313,10.8487362 C46.1180607,10.6222656 46.0151195,10.3546186 46.0151195,10.0355009 L46.0151195,9.16050092 C46.0151195,8.84138327 46.1283548,8.57373621 46.3445313,8.34726562 C46.5710018,8.12079504 46.8386489,8.01785386 47.1577665,8.01785386 L59.881296,8.01785386 L59.881296,8.01785386 Z M59.881296,13.3913833 C60.2004136,13.3913833 60.4680607,13.5046186 60.6945313,13.720795 C60.9210018,13.9472656 61.0342371,14.2149127 61.0342371,14.5340303 L61.0342371,15.4090303 C61.0342371,15.728148 60.9210018,15.995795 60.6945313,16.2222656 C60.4680607,16.4487362 60.2004136,16.5516774 59.881296,16.5516774 L47.1577665,16.5516774 C46.8386489,16.5516774 46.5710018,16.4384421 46.3445313,16.2222656 C46.1180607,15.995795 46.0151195,15.728148 46.0151195,15.4090303 L46.0151195,14.5340303 C46.0151195,14.2149127 46.1283548,13.9472656 46.3445313,13.720795 C46.5710018,13.4943244 46.8386489,13.3913833 47.1577665,13.3913833 L59.881296,13.3913833 L59.881296,13.3913833 Z M59.881296,18.7649127 C60.2004136,18.7649127 60.4680607,18.878148 60.6945313,19.0943244 C60.9210018,19.320795 61.0342371,19.5884421 61.0342371,19.9075597 L61.0342371,20.7825597 C61.0342371,21.1016774 60.9210018,21.3693244 60.6945313,21.595795 C60.4680607,21.8222656 60.2004136,21.9252068 59.881296,21.9252068 L47.1577665,21.9252068 C46.8386489,21.9252068 46.5710018,21.8119715 46.3445313,21.595795 C46.1180607,21.3693244 46.0151195,21.1016774 46.0151195,20.7825597 L46.0151195,19.9075597 C46.0151195,19.5884421 46.1283548,19.3105009 46.3445313,19.0943244 C46.5710018,18.8678539 46.8386489,18.7649127 47.1577665,18.7649127 L59.881296,18.7649127 L59.881296,18.7649127 Z" id="形状" fill="#2E6E75" fill-rule="nonzero"></path>
                <path d="M37.5,9.5 L37.5,22.5" id="直线-7" stroke-opacity="0.202524038" stroke="#FFFFFF" stroke-linecap="square"></path>
            </g>
        </g>
    </g>
</svg>