<?xml version="1.0" encoding="UTF-8"?>
<svg width="30px" height="30px" viewBox="0 0 30 30" version="1.1" xmlns="http://www.w3.org/2000/svg" xmlns:xlink="http://www.w3.org/1999/xlink">
    <!-- Generator: Sketch 58 (84663) - https://sketch.com -->
    <title>关闭麦克风</title>
    <desc>Created with Sketch.</desc>
    <g id="---第三版" stroke="none" stroke-width="1" fill="none" fill-rule="evenodd">
        <g id="桌面-优化提醒备份-7" transform="translate(-858.000000, -837.000000)">
            <g id="编组-25" transform="translate(-2.000000, -2.000000)">
                <g id="关闭麦克风" transform="translate(860.000000, 839.000000)">
                    <path d="M14.961039,-8.8817842e-14 C6.68181818,-8.8817842e-14 -8.8817842e-14,6.7012987 -8.8817842e-14,14.961039 C-8.8817842e-14,23.2207792 6.7012987,29.9220779 14.961039,29.9220779 C23.2207792,29.9220779 29.9220779,23.2207792 29.9220779,14.961039 C29.9220779,6.7012987 23.2402597,-8.8817842e-14 14.961039,-8.8817842e-14 Z" id="路径" fill-opacity="0.3" fill="#333333" fill-rule="nonzero"></path>
                    <path d="M19.4598454,13.1444052 C19.6262545,13.1444052 19.7702621,13.2052083 19.8918683,13.3268145 C20.0134745,13.4484207 20.0743112,13.5924283 20.0743112,13.7588374 L20.0743112,14.9877184 C20.0743112,16.4022121 19.6022793,17.6326893 18.6582157,18.6791499 C17.7141521,19.7256104 16.5476759,20.3256496 15.158787,20.4792675 L15.158787,21.7465558 L17.6165491,21.7465558 C17.7829581,21.7465558 17.9269657,21.8073589 18.0485719,21.9289651 C18.1701781,22.0505712 18.2309812,22.1945789 18.2309812,22.3609879 C18.2309812,22.527397 18.1701781,22.6714046 18.0485719,22.7930108 C17.9269657,22.9146169 17.7829581,22.97542 17.6165491,22.97542 L11.4721606,22.97542 C11.3057516,22.97542 11.161744,22.9146169 11.0401378,22.7930108 C10.9185316,22.6714046 10.8577285,22.527397 10.8577285,22.3609879 C10.8577285,22.1945789 10.9185316,22.0505712 11.0401378,21.9289651 C11.161744,21.8073589 11.3057516,21.7465558 11.4721606,21.7465558 L13.9299227,21.7465558 L13.9299227,20.4792675 C12.5638399,20.3281831 11.4129255,19.745207 10.4771795,18.7303391 L11.3474456,17.8605537 C11.3984457,17.9165247 11.4512125,17.971777 11.505746,18.0263105 C12.3474014,18.8679659 13.3602655,19.2887937 14.544338,19.2887937 C15.7284106,19.2887937 16.7412746,18.8679659 17.5829301,18.0263105 C18.4245856,17.184655 18.8454133,16.171791 18.8454133,14.9877184 L18.8454133,13.7588374 C18.8454133,13.5924283 18.9062164,13.4484207 19.0278226,13.3268145 C19.1494288,13.2052083 19.2934364,13.1444052 19.4598454,13.1444052 Z M17.6163985,11.591 L17.6165491,14.9877016 C17.6165491,15.8325605 17.3157314,16.5558076 16.7140961,17.1574429 C16.1124608,17.7590782 15.3892137,18.0598958 14.5443548,18.0598958 C13.699496,18.0598958 12.9762489,17.7590782 12.3746136,17.1574429 L12.2179895,16.9903454 L12.2179895,16.9903454 L17.6163985,11.591 Z M9.62883065,13.1444052 C9.7952397,13.1444052 9.93924731,13.2052083 10.0608535,13.3268145 C10.1824597,13.4484207 10.2432628,13.5924283 10.2432628,13.7588374 L10.2432628,14.9877184 C10.2432628,15.740853 10.413515,16.4247226 10.7540196,17.0393271 L9.85794499,17.9340098 C9.29558068,17.0615219 9.01439852,16.0794248 9.01439852,14.9877184 L9.01439852,13.7588374 C9.01439852,13.5924283 9.07520161,13.4484207 9.1968078,13.3268145 C9.31841398,13.2052083 9.46242159,13.1444052 9.62883065,13.1444052 Z M14.5443548,7 C15.3892137,7 16.1124608,7.30081765 16.7140961,7.90245296 C17.3157314,8.50408826 17.6165491,9.22733535 17.6165491,10.0721942 L17.6163985,10.176 L11.6776303,16.1140281 C11.5406505,15.7662744 11.4721606,15.3908322 11.4721606,14.9877016 L11.4721606,10.0721942 C11.4721606,9.22733535 11.7729783,8.50408826 12.3746136,7.90245296 C12.9762489,7.30081765 13.699496,7 14.5443548,7 Z" id="形状结合" fill="#FFFFFF" fill-rule="nonzero"></path>
                    <path d="M9.5,20.5 L19.5,10.5" id="直线-10备份" stroke="#DA361F" stroke-width="1.3" stroke-linecap="round"></path>
                </g>
            </g>
        </g>
    </g>
</svg>