<?xml version="1.0" encoding="UTF-8"?>
<svg width="30px" height="30px" viewBox="0 0 30 30" version="1.1" xmlns="http://www.w3.org/2000/svg" xmlns:xlink="http://www.w3.org/1999/xlink">
    <!-- Generator: Sketch 58 (84663) - https://sketch.com -->
    <title>打开麦克风</title>
    <desc>Created with Sketch.</desc>
    <g id="---第三版" stroke="none" stroke-width="1" fill="none" fill-rule="evenodd">
        <g id="桌面-优化提醒备份-6" transform="translate(-890.000000, -837.000000)" fill-rule="nonzero">
            <g id="编组-21" transform="translate(-36.000000, -2.000000)">
                <g id="打开麦克风" transform="translate(926.000000, 839.000000)">
                    <path d="M14.961039,-9.05941988e-14 C6.68181818,-9.05941988e-14 -9.05941988e-14,6.7012987 -9.05941988e-14,14.961039 C-9.05941988e-14,23.2207792 6.7012987,29.9220779 14.961039,29.9220779 C23.2207792,29.9220779 29.9220779,23.2207792 29.9220779,14.961039 C29.9220779,6.7012987 23.2402597,-9.05941988e-14 14.961039,-9.05941988e-14 Z" id="路径" fill-opacity="0.3" fill="#333333"></path>
                    <g id="麦克风" transform="translate(9.000000, 7.000000)" fill="#FFFFFF">
                        <path d="M11.0743112,6.75883737 L11.0743112,7.98771841 C11.0743112,9.40221214 10.6022793,10.6326893 9.65821573,11.6791499 C8.71415211,12.7256104 7.54767585,13.3256496 6.15878696,13.4792675 L6.15878696,14.7465558 L8.61654906,14.7465558 C8.78295811,14.7465558 8.92696573,14.8073589 9.04857191,14.9289651 C9.17017809,15.0505712 9.23098118,15.1945789 9.23098118,15.3609879 C9.23098118,15.527397 9.17017809,15.6714046 9.04857191,15.7930108 C8.92696573,15.9146169 8.78295811,15.97542 8.61654906,15.97542 L2.47216062,15.97542 C2.30575157,15.97542 2.16174395,15.9146169 2.04013777,15.7930108 C1.91853159,15.6714046 1.85772849,15.527397 1.85772849,15.3609879 C1.85772849,15.1945789 1.91853159,15.0505712 2.04013777,14.9289651 C2.16174395,14.8073589 2.30575157,14.7465558 2.47216062,14.7465558 L4.92992272,14.7465558 L4.92992272,13.4792675 C3.54103383,13.3256608 2.37455757,12.7256216 1.43049395,11.6791499 C0.486430332,10.6326781 0.0143985215,9.40220094 0.0143985215,7.98771841 L0.0143985215,6.75883737 C0.0143985215,6.59242832 0.0752016129,6.4484207 0.196807796,6.32681452 C0.318413978,6.20520833 0.462421595,6.14440524 0.628830645,6.14440524 C0.795239695,6.14440524 0.939247312,6.20520833 1.06085349,6.32681452 C1.18245968,6.4484207 1.24326277,6.59242832 1.24326277,6.75883737 L1.24326277,7.98771841 C1.24326277,9.17179099 1.6640905,10.184655 2.50574597,11.0263105 C3.34740143,11.8679659 4.36026546,12.2887937 5.54433804,12.2887937 C6.72841062,12.2887937 7.74127464,11.8679659 8.58293011,11.0263105 C9.42458557,10.184655 9.84541331,9.17179099 9.84541331,7.98771841 L9.84541331,6.75883737 C9.84541331,6.59242832 9.9062164,6.4484207 10.0278226,6.32681452 C10.1494288,6.20520833 10.2934364,6.14440524 10.4598454,6.14440524 C10.6262545,6.14440524 10.7702621,6.20520833 10.8918683,6.32681452 C11.0134745,6.4484207 11.0743112,6.59242832 11.0743112,6.75883737 L11.0743112,6.75883737 Z M8.61654906,3.07219422 L8.61654906,7.98770161 C8.61654906,8.83256048 8.31573141,9.55580757 7.7140961,10.1574429 C7.1124608,10.7590782 6.38921371,11.0598958 5.54435484,11.0598958 C4.69949597,11.0598958 3.97624888,10.7590782 3.37461358,10.1574429 C2.77297827,9.55580757 2.47216062,8.83256048 2.47216062,7.98770161 L2.47216062,3.07219422 C2.47216062,2.22733535 2.77297827,1.50408826 3.37461358,0.902452957 C3.97624888,0.300817652 4.69949597,8.52651283e-14 5.54435484,8.52651283e-14 C6.38921371,8.52651283e-14 7.1124608,0.300817652 7.7140961,0.902452957 C8.31573141,1.50408826 8.61654906,2.22733535 8.61654906,3.07219422 Z" id="形状"></path>
                    </g>
                </g>
            </g>
        </g>
    </g>
</svg>