<?xml version="1.0" encoding="UTF-8"?>
<svg width="44px" height="44px" viewBox="0 0 44 44" version="1.1" xmlns="http://www.w3.org/2000/svg" xmlns:xlink="http://www.w3.org/1999/xlink">
    <!-- Generator: Sketch 58 (84663) - https://sketch.com -->
    <title>人员管理</title>
    <desc>Created with Sketch.</desc>
    <g id="优化" stroke="none" stroke-width="1" fill="none" fill-rule="evenodd">
        <g id="我发起会议" transform="translate(-294.000000, -592.000000)" fill-rule="nonzero">
            <g id="人员管理" transform="translate(294.000000, 592.000000)">
                <path d="M22,0 C9.82552083,0 0,9.85416667 0,22 C0,34.1458333 9.85416667,44 22,44 C34.1458333,44 44,34.1458333 44,22 C44,9.85416667 34.1744792,0 22,0 Z" id="路径" fill-opacity="0.3" fill="#333333"></path>
                <path d="M27.0333333,22.6393035 C26.9722222,22.6393035 26.3611111,22.2661692 26.7888889,21.3333333 L26.9111111,21.2089552 C27.6444444,20.5870647 28.2555556,19.2189055 28.2555556,17.3532338 C28.2555556,15.3631841 26.9722222,13.9950249 25.2,13.9950249 C24.8944444,13.9950249 24.65,13.9950249 24.4055556,14.0572139 C25.0166667,14.8034826 25.2,16.1716418 25.2,17.4154229 C25.2,19.778607 24.5888889,21.7064677 23.6722222,22.6393035 C23.6722222,22.6393035 23.1222222,23.1368159 23.7333333,23.4477612 L24.5277778,23.8208955 C25.9944444,24.5671642 27.7055556,25.6243781 28.9277778,26.681592 L31.25,26.681592 C31.4333333,26.681592 31.6166667,26.4950249 31.6166667,26.3084577 L31.6166667,25.6865672 C31.5555556,24.8159204 28.8055556,23.261194 27.0333333,22.6393035 L27.0333333,22.6393035 Z M22.5111111,24.318408 C22.3888889,24.2562189 21.7166667,23.8208955 22.1444444,22.5771144 C23.1833333,21.8308458 24.0388889,19.9029851 24.0388889,17.4154229 C24.0388889,14.7412935 22.5111111,13 20.1277778,13 C17.6833333,13 16.2166667,14.8034826 16.2166667,17.4154229 C16.2166667,19.778607 17.0111111,21.8308458 18.1111111,22.5771144 C18.4166667,23.8208955 17.8666667,24.1940299 17.6833333,24.2562189 C15.4833333,25.1268657 12,27.1791045 12,28.3606965 L12,29.1069652 C12,29.3557214 12.2444444,29.6666667 12.4888889,29.6666667 L27.7666667,29.6666667 C28.0111111,29.6666667 28.2555556,29.4800995 28.2555556,29.1691542 L28.2555556,28.4228856 C28.2555556,27.1791045 24.8944444,25.1268657 22.5111111,24.318408 Z" id="形状" fill="#FFFFFF"></path>
            </g>
        </g>
    </g>
</svg>