<?xml version="1.0" encoding="UTF-8"?>
<svg width="75px" height="31px" viewBox="0 0 75 31" version="1.1" xmlns="http://www.w3.org/2000/svg" xmlns:xlink="http://www.w3.org/1999/xlink">
    <!-- Generator: Sketch 58 (84663) - https://sketch.com -->
    <title>大图模式</title>
    <desc>Created with Sketch.</desc>
    <g id="---第三版" stroke="none" stroke-width="1" fill="none" fill-rule="evenodd">
        <g id="桌面-优化提醒备份-7" transform="translate(-1231.000000, -838.000000)">
            <g id="编组-25" transform="translate(-2.000000, -2.000000)">
                <g id="大图模式" transform="translate(1232.006793, 840.006793)">
                    <rect id="矩形" fill-opacity="0.3" fill="#333333" x="0.978087036" y="0.975352661" width="75" height="30" rx="15"></rect>
                    <path d="M16.7492283,8.98214614 L21.3066196,8.98214614 C21.7292283,8.98214614 22.070968,9.32388527 22.070968,9.74649397 L22.070968,14.3038853 C22.0711982,14.506603 21.9908902,14.7011095 21.8477102,14.8446156 C21.7045302,14.9881218 21.5102069,15.0688722 21.3074892,15.0691032 L16.7500979,15.0691032 C16.5472296,15.0693335 16.3525913,14.9889061 16.2090602,14.845538 C16.065529,14.70217 15.9848805,14.5076232 15.9848805,14.3047548 L15.9848805,9.74736353 C15.9848805,9.32388527 16.3266196,8.98214614 16.7492283,8.98214614 Z M16.7492283,16.8082331 L21.3066196,16.8082331 C21.7292283,16.8082331 22.0709675,17.1499722 22.0709675,17.5725809 L22.0709675,22.1308418 C22.0709675,22.3335594 21.9904382,22.5279743 21.8470952,22.6713173 C21.7037522,22.8146603 21.5093373,22.8951901 21.3066196,22.8951901 L16.7500979,22.8951901 C16.5472296,22.8954204 16.3525913,22.814993 16.2090602,22.671625 C16.065529,22.5282569 15.9848805,22.3337102 15.9848805,22.1308418 L15.9848805,17.5734505 C15.9848805,17.1508418 16.3266196,16.8091027 16.7492283,16.8091027 L16.7492283,16.8082331 Z M24.5753153,8.98214614 L29.1335762,8.98214614 C29.5561849,8.98214614 29.897924,9.32388527 29.897924,9.74649397 L29.897924,14.3038853 C29.897924,14.7260229 29.5557138,15.0682336 29.1335762,15.0682336 L24.5761849,15.0682336 C24.3734672,15.0684639 24.1789606,14.9881558 24.0354545,14.8449758 C23.8919484,14.7017958 23.811198,14.5074725 23.8109675,14.3047548 L23.8109675,9.74736353 C23.8109675,9.32475484 24.1527066,8.9830157 24.5753153,8.9830157 L24.5753153,8.98214614 Z M24.5753153,16.8082331 L29.1335762,16.8082331 C29.5561849,16.8082331 29.897924,17.1499722 29.897924,17.5725809 L29.897924,22.1308418 C29.897924,22.3335594 29.8173947,22.5279743 29.6740517,22.6713173 C29.5307087,22.8146603 29.3362938,22.8951896 29.1335762,22.8951896 L24.5761849,22.8951896 C24.3734672,22.8951896 24.1790524,22.8146603 24.0357093,22.6713173 C23.8923663,22.5279743 23.811837,22.3335594 23.811837,22.1308418 L23.811837,17.5734505 C23.811837,17.1508418 24.1535762,16.8091027 24.5761849,16.8091027 L24.5753153,16.8082331 Z" id="形状" fill="#2E6E75" fill-rule="nonzero"></path>
                    <path d="M60.859383,8.99320652 C61.1785006,8.99320652 61.4461477,9.10644182 61.6726183,9.32261829 C61.8990889,9.54908887 62.0123242,9.81673593 62.0123242,10.1358536 L62.0123242,11.0108536 C62.0123242,11.3299712 61.8990889,11.6079124 61.6726183,11.8240889 C61.4461477,12.0505595 61.1785006,12.1535006 60.859383,12.1535006 L48.1358536,12.1535006 C47.8167359,12.1535006 47.5490889,12.0402653 47.3226183,11.8240889 C47.0961477,11.5976183 46.9932065,11.3299712 46.9932065,11.0108536 L46.9932065,10.1358536 C46.9932065,9.81673593 47.1064418,9.54908887 47.3226183,9.32261829 C47.5490889,9.0961477 47.8167359,8.99320652 48.1358536,8.99320652 L60.859383,8.99320652 L60.859383,8.99320652 Z M60.859383,14.3667359 C61.1785006,14.3667359 61.4461477,14.4799712 61.6726183,14.6961477 C61.8990889,14.9226183 62.0123242,15.1902653 62.0123242,15.509383 L62.0123242,16.384383 C62.0123242,16.7035006 61.8990889,16.9711477 61.6726183,17.1976183 C61.4461477,17.4240889 61.1785006,17.5270301 60.859383,17.5270301 L48.1358536,17.5270301 C47.8167359,17.5270301 47.5490889,17.4137948 47.3226183,17.1976183 C47.0961477,16.9711477 46.9932065,16.7035006 46.9932065,16.384383 L46.9932065,15.509383 C46.9932065,15.1902653 47.1064418,14.9226183 47.3226183,14.6961477 C47.5490889,14.4696771 47.8167359,14.3667359 48.1358536,14.3667359 L60.859383,14.3667359 L60.859383,14.3667359 Z M60.859383,19.7402653 C61.1785006,19.7402653 61.4461477,19.8535006 61.6726183,20.0696771 C61.8990889,20.2961477 62.0123242,20.5637948 62.0123242,20.8829124 L62.0123242,21.7579124 C62.0123242,22.0770301 61.8990889,22.3446771 61.6726183,22.5711477 C61.4461477,22.7976183 61.1785006,22.9005595 60.859383,22.9005595 L48.1358536,22.9005595 C47.8167359,22.9005595 47.5490889,22.7873242 47.3226183,22.5711477 C47.0961477,22.3446771 46.9932065,22.0770301 46.9932065,21.7579124 L46.9932065,20.8829124 C46.9932065,20.5637948 47.1064418,20.2858536 47.3226183,20.0696771 C47.5490889,19.8432065 47.8167359,19.7402653 48.1358536,19.7402653 L60.859383,19.7402653 L60.859383,19.7402653 Z" id="形状" fill="#FFFFFF" fill-rule="nonzero"></path>
                    <path d="M38.478087,10.4753527 L38.478087,23.4753527" id="直线-7" stroke-opacity="0.202524038" stroke="#FFFFFF" stroke-linecap="square"></path>
                </g>
            </g>
        </g>
    </g>
</svg>