<?xml version="1.0" encoding="UTF-8"?>
<svg width="20px" height="20px" viewBox="0 0 20 20" version="1.1" xmlns="http://www.w3.org/2000/svg" xmlns:xlink="http://www.w3.org/1999/xlink">
    <!-- Generator: Sketch 58 (84663) - https://sketch.com -->
    <title>举手发言</title>
    <desc>Created with Sketch.</desc>
    <g id="---第三版" stroke="none" stroke-width="1" fill-rule="evenodd">
        <g id="桌面-优化提醒备份-6" transform="translate(-518.000000, -842.000000)" fill-rule="nonzero">
            <g id="编组-21" transform="translate(-36.000000, -2.000000)">
                <path d="M572.081897,854.273009 L572.010057,854.273009 C571.643918,854.372043 571.306575,854.55672 571.025862,854.811802 L568.489943,856.729905 C568.348824,856.838503 568.17901,856.903432 568.001437,856.916687 C567.731643,856.916687 567.512931,856.697975 567.512931,856.428181 L567.512931,848.109216 C567.518707,847.749207 567.379726,847.401947 567.127163,847.145332 C566.874599,846.888717 566.529595,846.744227 566.16954,846.744273 C565.415703,846.744273 564.804598,847.355379 564.804598,848.109216 L564.804598,853.137951 C564.720922,853.298295 564.55442,853.398196 564.373563,853.396572 C564.103769,853.396572 563.885057,853.177861 563.885057,852.908066 L563.83477,845.357779 C563.840572,844.998426 563.701369,844.651887 563.448591,844.396405 C563.195812,844.140923 562.850773,843.998041 562.491379,844 C561.740339,844 561.13039,844.606749 561.126437,845.357779 L561.126437,853.331917 C561.126437,853.605679 560.904509,853.827606 560.630747,853.827606 C560.499933,853.827621 560.374578,853.775168 560.282756,853.681996 C560.190935,853.588824 560.140318,853.462717 560.142241,853.331917 L560.142241,847.512951 C560.149971,847.153615 560.012612,846.806316 559.761182,846.549479 C559.509752,846.292642 559.165454,846.147926 558.806034,846.148009 C558.055005,846.151962 557.448265,846.761911 557.448276,847.512951 L557.448276,847.678181 C557.448276,847.678181 557.58477,853.346285 557.448276,853.956917 C557.117816,853.281629 556.428161,851.291687 556.428161,851.291687 C556.346277,850.690415 555.848773,850.232109 555.242816,850.199733 C554.917816,850.207416 554.608594,850.341412 554.380747,850.573296 C554.141156,850.799391 554.003728,851.113142 554,851.442549 C554.022096,851.634651 554.06055,851.824517 554.114943,852.010078 L556.737069,860.372147 C557.024288,861.285892 557.61806,862.072513 558.418103,862.599158 C559.966371,863.509049 561.730026,863.987791 563.525862,863.98566 C563.927309,863.979275 564.327977,863.948086 564.725575,863.892262 L564.797414,863.892262 C565.728467,863.756748 566.582574,863.29919 567.211207,862.599158 L567.283046,862.534503 L573.030172,856.737089 L573.08046,856.679618 C573.337413,856.425121 573.482216,856.078628 573.482779,855.716974 C573.486915,854.934491 572.864147,854.29256 572.081897,854.273009 Z" id="举手发言"></path>
            </g>
        </g>
    </g>
</svg>