<?xml version="1.0" encoding="UTF-8"?>
<svg width="20px" height="18px" viewBox="0 0 20 18" version="1.1" xmlns="http://www.w3.org/2000/svg" xmlns:xlink="http://www.w3.org/1999/xlink">
    <!-- Generator: Sketch 58 (84663) - https://sketch.com -->
    <title>桌面共享</title>
    <desc>Created with Sketch.</desc>
    <g id="---第三版" stroke="none" stroke-width="1" fill="none" fill-rule="evenodd">
        <g id="桌面-优化提醒备份-6" transform="translate(-432.000000, -842.000000)" fill="#FFFFFF" fill-rule="nonzero">
            <g id="编组-21" transform="translate(-36.000000, -2.000000)">
                <path d="M483.413592,859.946506 L479.544235,856.091562 C479.146751,855.693882 478.607531,855.470452 478.045265,855.470452 C477.483,855.470452 476.94378,855.693882 476.546296,856.091562 L472.680049,859.94958 L470.868309,859.94958 C469.284186,859.94958 468,858.665395 468,857.081272 L468,846.868309 C468,845.284186 469.284186,844 470.868309,844 L485.065846,844 C486.649969,844 487.934154,845.284186 487.934154,846.868309 L487.934154,857.082321 C487.934154,858.666444 486.649969,859.950629 485.065846,859.950629 L483.413592,859.946506 Z M478.552001,857.898594 L481.833378,860.819282 C482.03334,860.994958 482.09777,861.259883 481.99745,861.493911 C481.879321,861.735893 481.50114,861.708759 481.50114,861.708759 L474.547097,861.708759 C474.358962,861.704484 474.186049,861.615335 474.087702,861.471908 C473.990233,861.243411 474.05961,860.984864 474.26243,860.820751 L477.543807,857.89639 C477.822487,857.64743 478.274143,857.64743 478.552823,857.89639 L478.552001,857.898594 Z" id="桌面共享"></path>
            </g>
        </g>
    </g>
</svg>