<?xml version="1.0" encoding="UTF-8"?>
<svg width="18px" height="18px" viewBox="0 0 18 18" version="1.1" xmlns="http://www.w3.org/2000/svg" xmlns:xlink="http://www.w3.org/1999/xlink">
    <!-- Generator: Sketch 58 (84663) - https://sketch.com -->
    <title>分享</title>
    <desc>Created with Sketch.</desc>
    <g id="---第三版" stroke="none" stroke-width="1" fill="none" fill-rule="evenodd">
        <g id="桌面-优化提醒备份-6" transform="translate(-676.000000, -843.000000)" fill="#FFFFFF" fill-rule="nonzero">
            <g id="编组-21" transform="translate(-36.000000, -2.000000)">
                <path d="M729.883291,852.364837 L721.092076,845.035835 C720.992347,844.952608 720.84096,845.023638 720.84096,845.1535 L720.84096,849.448542 C720.827567,849.448303 720.814413,849.448303 720.80102,849.448303 C715.94037,849.448303 712,853.388673 712,858.249323 C712,859.870816 712.438616,861.389948 713.203683,862.694556 C713.458865,858.698701 716.780772,855.536791 720.84096,855.536791 L720.84096,859.805764 C720.84096,859.935627 720.992347,860.006418 721.092076,859.92343 L729.883291,852.600168 C729.956712,852.538944 729.956712,852.426061 729.883291,852.364837 L729.883291,852.364837 Z" id="分享"></path>
            </g>
        </g>
    </g>
</svg>