<?xml version="1.0" encoding="UTF-8"?>
<svg width="44px" height="44px" viewBox="0 0 44 44" version="1.1" xmlns="http://www.w3.org/2000/svg" xmlns:xlink="http://www.w3.org/1999/xlink">
    <!-- Generator: Sketch 58 (84663) - https://sketch.com -->
    <title>切换摄像头</title>
    <desc>Created with Sketch.</desc>
    <g id="优化" stroke="none" stroke-width="1" fill="none" fill-rule="evenodd">
        <g id="我发起会议" transform="translate(-230.000000, -592.000000)" fill-rule="nonzero">
            <g id="切换摄像头" transform="translate(230.000000, 592.000000)">
                <path d="M22,0 C9.82552083,0 0,9.85416667 0,22 C0,34.1458333 9.85416667,44 22,44 C34.1458333,44 44,34.1458333 44,22 C44,9.85416667 34.1744792,0 22,0 Z" id="路径" fill-opacity="0.3" fill="#333333"></path>
                <g id="切换摄像头-(1)" transform="translate(12.000000, 13.000000)" fill="#FFFFFF">
                    <path d="M18.1242857,2.63714286 C19.16,2.63714286 20,3.52285714 20,4.61428571 L20,15.1642857 C20,16.26 19.16,17.1428571 18.1242857,17.1428571 L1.87571429,17.1428571 C0.842857143,17.1428571 0,16.2571429 0,15.1642857 L0,4.61428571 C0,3.52285714 0.84,2.63714286 1.87571429,2.63714286 L4.35,2.63714286 C4.94285714,2.63714286 6.20285714,0 6.86428571,0 L13.12,0 C13.7814286,0 15.0428571,2.63714286 15.6342857,2.63714286 L18.1242857,2.63714286 Z M14.72,8.99714286 C14.7207418,8.04508604 14.4306565,7.11551707 13.8885714,6.33285714 L13.8685714,6.29571429 C13.8042857,6.20285714 13.7328571,6.11714286 13.6628571,6.03 L13.6385714,5.99714286 C13.1685714,5.42571429 12.5657143,4.97285714 11.8785714,4.67857143 L11.8228571,4.65 C11.7132425,4.6063824 11.6022308,4.56636101 11.49,4.53 C11.45,4.51714286 11.41,4.50142857 11.37,4.49142857 C11.2715721,4.46338366 11.172497,4.43766224 11.0728571,4.41428571 C11.0157143,4.4 10.9628571,4.38714286 10.9071429,4.37571429 C10.88,4.37142857 10.8528571,4.36285714 10.8271429,4.35857143 C10.7528571,4.34571429 10.6757143,4.34142857 10.6028571,4.33 L10.4485714,4.31 C10.3245683,4.29882847 10.2002009,4.29215742 10.0757143,4.29 L10.0085714,4.28857143 L9.99714286,4.29 C9.03142857,4.29 8.08857143,4.58714286 7.30571429,5.14142857 C7.1169839,5.27124968 7.02575538,5.50249687 7.07501548,5.72620677 C7.12427559,5.94991667 7.30419661,6.12145772 7.53,6.16 C7.67833768,6.18616126 7.83098929,6.15223868 7.95428571,6.06571429 C8.67896677,5.55574204 9.56811899,5.33511 10.4471429,5.44714286 C10.5314286,5.45857143 10.6157143,5.46857143 10.6985714,5.48571429 L10.8085714,5.51142857 C10.8914286,5.52857143 10.9714286,5.54857143 11.0514286,5.57142857 L11.1285714,5.6 C11.771922,5.81113074 12.3424474,6.19990023 12.7742857,6.72142857 L12.78,6.72857143 C13.2871429,7.34571429 13.5942857,8.13714286 13.5942857,8.99714286 L12.6514286,8.99714286 L14.1571429,11.2571429 L15.6671429,8.99714286 L14.7185714,8.99714286 L14.72,8.99714286 Z M12.06,11.9271429 C11.3632678,12.415122 10.5152936,12.6385131 9.66857143,12.5571429 L9.55,12.5428571 C9.47428571,12.5314286 9.39857143,12.5228571 9.32428571,12.5071429 L9.18857143,12.4757143 C9.11428571,12.4585714 9.04285714,12.4428571 8.97142857,12.4214286 C8.83512662,12.3828551 8.70189838,12.334148 8.57285714,12.2757143 C8.48142857,12.2328571 8.39,12.1914286 8.30142857,12.1428571 L8.28714286,12.1371429 C7.98814673,11.9728957 7.71398268,11.7670321 7.47285714,11.5257143 L7.46285714,11.5128571 C7.38741779,11.4380276 7.31589393,11.3593514 7.24857143,11.2771429 C7.23714286,11.2585714 7.22,11.2414286 7.20714286,11.2228571 C6.69873206,10.5902472 6.42153857,9.80301767 6.42142857,8.99142857 L7.36571429,8.99142857 L5.85714286,6.73142857 L4.34857143,8.99142857 L5.29142857,8.99142857 C5.29142857,9.98428571 5.60285714,10.9028571 6.12571429,11.6614286 L6.14428571,11.6942857 C6.19714286,11.7714286 6.25857143,11.8428571 6.31571429,11.9157143 L6.38,12 C6.46714286,12.1042857 6.55714286,12.2028571 6.65142857,12.2971429 L6.67714286,12.3257143 C6.99285714,12.64 7.35,12.9085714 7.73714286,13.1185714 C7.74857143,13.1257143 7.75714286,13.1328571 7.76857143,13.1371429 C7.88,13.1957143 7.99428571,13.2514286 8.11142857,13.3028571 L8.19714286,13.3414286 C8.29714286,13.3842857 8.39857143,13.4185714 8.50142857,13.4542857 L8.64857143,13.5028571 C8.73979914,13.5292075 8.83173915,13.5530261 8.92428571,13.5742857 L9.11,13.6157143 L9.18571429,13.6328571 C9.27285714,13.6471429 9.36,13.6571429 9.45,13.6671429 L9.54285714,13.6814286 C10.6638746,13.7952698 11.7883523,13.5010898 12.71,12.8528571 C12.9601453,12.8944904 13.2072433,12.7637096 13.3134857,12.5334521 C13.4197282,12.3031945 13.3588777,12.0303242 13.164871,11.8670226 C12.9708643,11.703721 12.6916129,11.6903168 12.4828571,11.8342857 C12.3351814,11.8085783 12.1833175,11.8419268 12.06,11.9271429 L12.06,11.9271429 Z" id="形状"></path>
                </g>
            </g>
        </g>
    </g>
</svg>